# xmcd CD database file
#
# Track frame offsets:
#	150
#	12382
#	28310
#	39502
#	53132
#	65587
#	80455
#	93935
#	106897
#	119705
#	131077
#	144055
#	157715
#	171592
#	183957
#
# Disc length: 2607 seconds
#
# Revision: 0
# Processed by: cddbd v1.5PL3 Copyright (c) Steve Scherf et al.
# Submitted via: CDex 1.50beta8
#
DISCID=c70a2d0f
DTITLE=various ａｒｔｉｓｔs - GSパラダイス〜GS BEST 30
DYEAR=2002
DGENRE=JPop
TTITLE0=青い瞳〜ジャッキー吉川とブルー・コメッツ
TTITLE1=いつまでもいつまでも〜ザ・サベージ
TTITLE2=夕日が泣いている〜ザ・スパイダース
TTITLE3=想い出の渚〜ザ・ワイルド・ワンズ
TTITLE4=ブルー・シャトゥ〜ジャッキー吉川とブルー・コメッツ
TTITLE5=好きさ好きさ好きさ〜ザ・カーナビーツ
TTITLE6=君に会いたい〜ザ・ジャガーズ
TTITLE7=いとしのジザベル〜ザ・ゴールデン・カップス
TTITLE8=青空のある限り〜ザ・ワイルド・ワンズ
TTITLE9=バン・バン・バン〜ザ・スパイダース
TTITLE10=忘れ得ぬ君〜ザ・テンプターズ
TTITLE11=朝まで待てない〜モップス
TTITLE12=あなたが欲しい〜ザ・ハプニング・フォー
TTITLE13=銀色のグラス〜ザ・ゴールデン・カップス
TTITLE14=真冬の帰り道〜ザ・ランチャーズ
EXTD=YEAR: 2002
EXTT0=
EXTT1=
EXTT2=
EXTT3=
EXTT4=
EXTT5=
EXTT6=
EXTT7=
EXTT8=
EXTT9=
EXTT10=
EXTT11=
EXTT12=
EXTT13=
EXTT14=
PLAYORDER=
